<svg height='100px' width='100px'  fill="#363636" xmlns="http://www.w3.org/2000/svg" xmlns:xlink="http://www.w3.org/1999/xlink" xml:space="preserve" version="1.1" style="shape-rendering:geometricPrecision;text-rendering:geometricPrecision;image-rendering:optimizeQuality;" viewBox="0 0 333 333" x="0px" y="0px" fill-rule="evenodd" clip-rule="evenodd"><defs><style type="text/css">
   
    .fil0 {fill:#363636}
   
  </style></defs><g><path class="fil0" d="M72 33l61 57c0,0 2,12 -3,22l-71 -71c4,-2 8,-5 13,-8zm52 87c-1,1 -2,2 -4,3 -16,10 -32,12 -32,12 16,44 67,95 111,111 0,0 2,-16 12,-33 1,-1 2,-2 3,-4l72 72c-88,86 -321,-145 -234,-233l72 72zm98 84c10,-5 22,-3 22,-3l56 61c-2,4 -5,9 -8,12l-70 -70z"></path></g></svg>